<svg xmlns="http://www.w3.org/2000/svg" width="23" height="22" viewBox="0 0 23 22" fill="none">
  <path d="M20.673 8.41256C20.6154 8.24274 20.5093 8.09353 20.3678 7.98335C20.2263 7.87316 20.0556 7.80681 19.8769 7.79251L14.6477 7.377L12.3849 2.36798C12.3129 2.20665 12.1956 2.06963 12.0474 1.97344C11.8992 1.87726 11.7263 1.82602 11.5496 1.82593C11.3729 1.82583 11.2 1.87687 11.0517 1.9729C10.9033 2.06892 10.786 2.20582 10.7137 2.36707L8.4509 7.377L3.22175 7.79251C3.04606 7.80642 2.8781 7.87066 2.73796 7.97754C2.59782 8.08442 2.49144 8.2294 2.43155 8.39516C2.37165 8.56091 2.36078 8.74041 2.40022 8.91218C2.43967 9.08395 2.52777 9.24072 2.65398 9.36373L6.51829 13.1308L5.15161 19.0488C5.11011 19.2279 5.12341 19.4154 5.18979 19.5869C5.25616 19.7584 5.37254 19.9059 5.52383 20.0105C5.67511 20.115 5.85432 20.1716 6.03819 20.173C6.22207 20.1744 6.40212 20.1205 6.55498 20.0183L11.5493 16.6888L16.5437 20.0183C16.6999 20.1221 16.8842 20.1755 17.0716 20.1713C17.2591 20.1672 17.4409 20.1058 17.5924 19.9953C17.744 19.8848 17.858 19.7306 17.9193 19.5533C17.9806 19.3761 17.9861 19.1843 17.9351 19.0039L16.2575 13.1336L20.4181 9.38941C20.6905 9.14359 20.7905 8.76019 20.673 8.41256Z" fill="#F3CD03"/>
</svg>