<svg xmlns="http://www.w3.org/2000/svg" width="30" height="27" viewBox="0 0 30 27" fill="none">
  <g clip-path="url(#clip0_993_938)">
    <path d="M14.9029 12.7044C17.5034 12.7044 19.5259 10.5697 19.5259 7.94993C19.5259 5.33011 17.4071 3.29248 14.8066 3.29248C12.2062 3.29248 10.1836 5.42715 10.1836 7.94993C10.1836 10.5697 12.3025 12.7044 14.9029 12.7044ZM14.8066 5.23309C14.9029 5.23309 14.9029 5.23309 14.8066 5.23309C16.3476 5.23309 17.5997 6.49448 17.5997 8.04696C17.5997 9.59945 16.3476 10.7638 14.8066 10.7638C13.2656 10.7638 12.1099 9.50242 12.1099 8.04696C12.1099 6.49448 13.3619 5.23309 14.8066 5.23309Z" fill="#00A0C1"/>
    <path d="M29.1585 12.122C27.3286 10.4725 24.9208 9.59924 22.4166 9.69627H21.6461C21.4535 10.4725 21.1645 11.1517 20.7793 11.7339C21.3572 11.6369 21.8387 11.6369 22.4166 11.6369C24.2466 11.5398 26.0765 12.122 27.5212 13.1894V20.1755H29.4475V12.4131L29.1585 12.122Z" fill="#00A0C1"/>
    <path d="M20.2019 3.4859C20.6835 2.32154 22.0318 1.73936 23.2839 2.22451C24.4397 2.70966 25.0175 4.06808 24.536 5.32947C24.1507 6.20275 23.2839 6.78493 22.4171 6.78493C22.2245 6.78493 21.9355 6.78493 21.7429 6.6879C21.8392 7.17305 21.8392 7.6582 21.8392 8.04632V8.6285C22.0318 8.6285 22.2245 8.72553 22.4171 8.72553C24.8249 8.72553 26.7512 6.78493 26.7512 4.4562C26.7512 2.03045 24.8249 0.0898438 22.5134 0.0898438C20.9724 0.0898438 19.624 0.866085 18.8535 2.22451C19.3351 2.5156 19.8166 2.90372 20.2019 3.4859Z" fill="#00A0C1"/>
    <path d="M9.2209 11.8306C8.83565 11.2484 8.54671 10.5692 8.35408 9.79296H7.58358C5.07944 9.69593 2.67162 10.5692 0.841673 12.1217L0.552734 12.4128V20.1752H2.47899V13.189C4.02 12.1217 5.75363 11.5395 7.58358 11.6365C8.16146 11.6365 8.73934 11.7336 9.2209 11.8306Z" fill="#00A0C1"/>
    <path d="M7.58469 8.62915C7.77732 8.62915 7.96994 8.62915 8.16257 8.53212V7.94994C8.16257 7.46479 8.16257 6.97963 8.25888 6.59151C8.06625 6.68854 7.77732 6.68854 7.58469 6.68854C6.33262 6.68854 5.27318 5.62121 5.27318 4.35982C5.27318 3.09843 6.33262 2.03109 7.58469 2.03109C8.54782 2.03109 9.41464 2.61327 9.79989 3.48655C10.1851 3.0014 10.763 2.51624 11.2446 2.12812C9.99251 0.0904882 7.39206 -0.588723 5.36949 0.67267C3.34692 1.93406 2.67273 4.55388 3.9248 6.59151C4.6953 7.85291 6.04368 8.62915 7.58469 8.62915Z" fill="#00A0C1"/>
    <path d="M22.8013 17.9435L22.6087 17.6524C20.6824 15.5177 17.9857 14.2563 15.0963 14.3534C12.2069 14.2563 9.41381 15.5177 7.48755 17.6524L7.29492 17.9435V25.3178C7.29492 26.1911 7.96911 26.9673 8.93224 26.9673H21.2603C22.1271 26.9673 22.8976 26.1911 22.8976 25.3178V17.9435H22.8013ZM20.875 25.0267H9.22118V18.6227C10.7622 17.0702 12.8811 16.294 15.0963 16.294C17.2152 16.1969 19.334 17.0702 20.875 18.6227V25.0267Z" fill="#00A0C1"/>
  </g>
  <defs>
    <clipPath id="clip0_993_938">
      <rect width="29" height="27" fill="white" transform="translate(0.5)"/>
    </clipPath>
  </defs>
</svg>
