<svg xmlns="http://www.w3.org/2000/svg" width="23" height="22" viewBox="0 0 23 22" fill="none">
  <path d="M6.03288 13.1308L4.6662 19.0488C4.62388 19.228 4.63658 19.4158 4.70265 19.5877C4.76872 19.7596 4.88509 19.9075 5.03655 20.0122C5.18801 20.1169 5.36753 20.1735 5.55165 20.1746C5.73578 20.1757 5.91596 20.1212 6.06865 20.0183L11.063 16.6888L16.0573 20.0183C16.2136 20.1221 16.3978 20.1755 16.5853 20.1714C16.7728 20.1673 16.9546 20.1058 17.1061 19.9953C17.2576 19.8849 17.3717 19.7306 17.433 19.5534C17.4942 19.3761 17.4997 19.1844 17.4488 19.0039L15.7712 13.1336L19.9317 9.38944C20.065 9.26946 20.1601 9.11304 20.2054 8.93955C20.2507 8.76605 20.2442 8.58308 20.1866 8.41327C20.129 8.24345 20.023 8.09424 19.8815 7.98408C19.74 7.87392 19.5693 7.80764 19.3906 7.79345L14.1614 7.37703L11.8986 2.36801C11.8264 2.20672 11.7091 2.06976 11.5609 1.97366C11.4126 1.87755 11.2397 1.82642 11.063 1.82642C10.8863 1.82642 10.7134 1.87755 10.5651 1.97366C10.4168 2.06976 10.2995 2.20672 10.2274 2.36801L7.96457 7.37703L2.73542 7.79254C2.55973 7.80645 2.39177 7.87069 2.25163 7.97757C2.11149 8.08445 2.00511 8.22943 1.94522 8.39518C1.88532 8.56094 1.87445 8.74044 1.9139 8.91221C1.95334 9.08398 2.04144 9.24074 2.16765 9.36376L6.03288 13.1308ZM8.64975 9.16288C8.81347 9.14998 8.97071 9.09328 9.10497 8.99871C9.23924 8.90414 9.3456 8.77519 9.41289 8.62538L11.063 4.97387L12.7131 8.62538C12.7804 8.77519 12.8867 8.90414 13.021 8.99871C13.1553 9.09328 13.3125 9.14998 13.4762 9.16288L17.1195 9.45181L14.1192 12.1521C13.8587 12.387 13.7551 12.7484 13.8505 13.0859L14.9998 17.108L11.573 14.8231C11.4226 14.7222 11.2455 14.6683 11.0644 14.6683C10.8832 14.6683 10.7062 14.7222 10.5558 14.8231L6.97488 17.2107L7.93797 13.0409C7.97329 12.8876 7.96855 12.7277 7.92421 12.5767C7.87988 12.4257 7.79744 12.2887 7.68482 12.1787L4.89826 9.4619L8.64975 9.16288Z" fill="#F3CD03"/>
</svg>